<?xml version="1.0" encoding="UTF-8"?>
<svg version="1.1" xmlns="http://www.w3.org/2000/svg" width="256" height="256">
<path d="M0 0 C84.48 0 168.96 0 256 0 C256 84.48 256 168.96 256 256 C171.52 256 87.04 256 0 256 C0 171.52 0 87.04 0 0 Z " fill="#FEFEFE" transform="translate(0,0)"/>
<path d="M0 0 C0 3.63165957 -0.51239171 3.94453048 -3 6.4375 C-14.36352891 17.36166575 -28.11913394 25.98920905 -41 35 C-53.04219912 43.42868441 -53.04219912 43.42868441 -64.9375 52.0625 C-65.87464844 52.75472656 -66.81179687 53.44695312 -67.77734375 54.16015625 C-70.19615763 55.98305486 -70.19615763 55.98305486 -72 59 C-71.95875 60.155 -71.9175 61.31 -71.875 62.5 C-72 66 -72 66 -73.875 67.9375 C-76 69 -76 69 -78 69 C-77.505 73.455 -77.505 73.455 -77 78 C-77.99 78.495 -77.99 78.495 -79 79 C-78.95875 79.78375 -78.9175 80.5675 -78.875 81.375 C-79 84 -79 84 -81 86 C-81.88980906 89.15169012 -81.79077827 91.83206511 -81 95 C-79.09795512 97.73103346 -77.00370064 99.99629936 -74.65234375 102.34765625 C-72.59754496 104.40245504 -70.7123174 106.46014947 -68.82421875 108.66015625 C-45.98950122 134.97045891 -20.99760637 155.41484812 14 161 C15.06669922 161.17418457 16.13339844 161.34836914 17.23242188 161.52783203 C21.09562994 162.01198473 24.79144707 162.11328736 28.68359375 162.09765625 C29.38396255 162.0962413 30.08433136 162.09482635 30.80592346 162.09336853 C33.01649466 162.08782477 35.22696004 162.07528326 37.4375 162.0625 C38.94726415 162.05747771 40.45702991 162.05291609 41.96679688 162.04882812 C45.64456493 162.03787387 49.32227212 162.0206489 53 162 C52.25 169.65625 52.25 169.65625 50 172.75 C40.97647982 179.51764014 31.97360127 180.13408769 21 179 C-7.6434661 174.07052366 -33.64786762 156.91350903 -55 138 C-55.83660156 137.27425781 -56.67320313 136.54851562 -57.53515625 135.80078125 C-68.10286654 126.50463285 -78.71497702 116.4748662 -87.3125 105.29296875 C-90.57289194 101.10540286 -93.62957308 98.53741059 -98.984375 97.68359375 C-102.4907234 97.47927646 -104.86519058 97.93259529 -108 99.5 C-110.23240378 102.29050473 -110.706917 104.09618562 -110.5078125 107.66015625 C-109.88760155 110.51789749 -108.77626493 112.87089424 -107.5 115.5 C-103.71932854 123.30837542 -104.6719909 128.8038083 -107.1484375 136.99609375 C-108 139 -108 139 -110 140 C-110.03738281 138.81921875 -110.07476562 137.6384375 -110.11328125 136.421875 C-110.17895149 134.86455212 -110.24539847 133.30726186 -110.3125 131.75 C-110.33505859 130.97269531 -110.35761719 130.19539062 -110.38085938 129.39453125 C-110.41630859 128.64042969 -110.45175781 127.88632813 -110.48828125 127.109375 C-110.51446533 126.41811523 -110.54064941 125.72685547 -110.56762695 125.01464844 C-111.11755066 122.45227102 -112.3293493 120.98377615 -114 119 C-114.16604736 119.75619629 -114.33209473 120.51239258 -114.50317383 121.29150391 C-115.26477631 124.73786742 -116.03851286 128.18139765 -116.8125 131.625 C-117.07353516 132.81480469 -117.33457031 134.00460938 -117.60351562 135.23046875 C-117.99506836 136.96103516 -117.99506836 136.96103516 -118.39453125 138.7265625 C-118.63018799 139.78439941 -118.86584473 140.84223633 -119.10864258 141.93212891 C-120.05794729 145.1994428 -121.39384709 148.00733901 -123 151 C-124.93681161 151.08107583 -126.8745934 151.13922475 -128.8125 151.1875 C-129.89144531 151.22230469 -130.97039062 151.25710937 -132.08203125 151.29296875 C-135 151 -135 151 -136.88671875 149.98828125 C-138.65883327 146.82334689 -138.34119264 143.51471012 -138 140 C-137.16434525 137.34957274 -136.30425097 134.98442111 -135.19140625 132.46484375 C-134.90522934 131.78249161 -134.61905243 131.10013947 -134.32420349 130.39710999 C-133.41693697 128.23797595 -132.4913546 126.08742496 -131.5625 123.9375 C-130.63937828 121.78322721 -129.72067247 119.62738064 -128.81150818 117.46717834 C-128.24805724 116.1300557 -127.67650161 114.79630757 -127.09535217 113.46678162 C-124.81334307 108.07900021 -123.13630104 102.67072805 -124.9375 96.9375 C-126.95800439 88.6576708 -127.70905127 80.03910826 -123.375 72.4375 C-120.69732731 68.56762542 -117.81905415 65.72789582 -114 63 C-115.03402246 67.85195155 -116.1704901 72.56983266 -117.625 77.3125 C-119.60146104 84.49229726 -120.25637433 91.63063248 -117.625 98.6875 C-116.20705855 101.094258 -116.20705855 101.094258 -114 102 C-113.95875 101.278125 -113.9175 100.55625 -113.875 99.8125 C-112.89439639 96.66055982 -111.5659448 94.95826195 -108.9453125 92.9453125 C-104.34630185 90.7104519 -98.96412471 91.33041203 -94.25 92.9375 C-93.5075 93.288125 -92.765 93.63875 -92 94 C-90.0075675 94.37593066 -88.0081326 94.71979545 -86 95 C-85.95101562 94.32453125 -85.90203125 93.6490625 -85.8515625 92.953125 C-85.77679688 92.06109375 -85.70203125 91.1690625 -85.625 90.25 C-85.55539063 89.36828125 -85.48578125 88.4865625 -85.4140625 87.578125 C-84.99970805 84.99818219 -84.18797039 83.29674276 -83 81 C-83.29805007 78.80252869 -83.29805007 78.80252869 -84 77 C-83.01 76.34 -82.02 75.68 -81 75 C-81.020625 73.865625 -81.04125 72.73125 -81.0625 71.5625 C-81.041875 70.386875 -81.02125 69.21125 -81 68 C-79.0625 66.3125 -79.0625 66.3125 -77 65 C-76.20376178 62.90584196 -76.20376178 62.90584196 -76 61 C-76.5775 60.773125 -77.155 60.54625 -77.75 60.3125 C-82.19312339 57.72067802 -84.44534884 53.78511169 -86 49 C-86.21118164 45.84960938 -86.21118164 45.84960938 -86.16015625 42.34375 C-86.1437207 40.43916016 -86.1437207 40.43916016 -86.12695312 38.49609375 C-86.10568359 37.17738281 -86.08441406 35.85867187 -86.0625 34.5 C-86.02799744 31.8854728 -85.99787352 29.27088324 -85.97265625 26.65625 C-85.95468994 25.49931641 -85.93672363 24.34238281 -85.91821289 23.15039062 C-85.99239734 20.29284976 -86.33700591 17.77281606 -87 15 C-86.34 15 -85.68 15 -85 15 C-81.89313091 21.00550299 -81.47282345 26.23597987 -81.3125 32.9375 C-81.27833984 33.90751953 -81.24417969 34.87753906 -81.20898438 35.87695312 C-81.12711426 38.25118637 -81.05776922 40.62507877 -81 43 C-80.01 42.67 -79.02 42.34 -78 42 C-79.75 46.875 -79.75 46.875 -82 48 C-81.505 50.475 -81.505 50.475 -81 53 C-76.65622769 50.2480849 -72.86515425 47.22427717 -69.125 43.6875 C-68.14940705 42.77370337 -67.17282488 41.86096183 -66.1953125 40.94921875 C-65.43347656 40.23862305 -65.43347656 40.23862305 -64.65625 39.51367188 C-62.84192286 37.85553092 -60.99109551 36.24540885 -59.1328125 34.63671875 C-55.61090169 31.57169316 -52.22675889 28.38774054 -48.86206055 25.15185547 C-20.91214828 -1.67049705 -20.91214828 -1.67049705 0 0 Z " fill="#ED373C" transform="translate(175,42)"/>
<path d="M0 0 C5.2469072 0.6558634 7.02187482 2.6488715 10.28515625 6.59765625 C17 16.00455581 17 16.00455581 17 21 C15.68 20.34 14.36 19.68 13 19 C14.20381448 21.49361571 15.45428722 23.68143083 17 26 C17.44703234 28.21584546 17.81463242 30.44841961 18.125 32.6875 C18.29257813 33.86699219 18.46015625 35.04648438 18.6328125 36.26171875 C18.75398438 37.16535156 18.87515625 38.06898438 19 39 C18.27518842 34.92507503 17.90134993 31.14330288 18 27 C18.66 27.33 19.32 27.66 20 28 C20.70713999 30.68891467 21.31526013 33.34286958 21.875 36.0625 C23.99277501 46.19427215 23.99277501 46.19427215 29.65625 54.6953125 C33.01573877 56.56542792 35.69290476 56.17986277 39.5 56 C47.20872808 55.63580812 47.20872808 55.63580812 51 59 C53.99549525 60.74679573 57.01134951 62.44443532 60.04296875 64.12695312 C62.64448477 65.5878894 64.87905746 66.87905746 67 69 C67 70.32 67 71.64 67 73 C47.64122479 79.45292507 19.73684394 73.2414078 1 66 C-1.8427728 63.1572272 -1.16716788 61.23509498 -1.1875 57.25 C-1.4842997 46.98938206 -4.95346315 37.69151483 -8.37329102 28.10620117 C-9 26 -9 26 -9 23 C-8.34 22.67 -7.68 22.34 -7 22 C-7.66 21.34 -8.32 20.68 -9 20 C-10.02776751 13.83339491 -7.76479288 10.17574326 -4.60546875 4.94140625 C-3.81076172 3.98041016 -3.81076172 3.98041016 -3 3 C-2.01 3 -1.02 3 0 3 C0 2.01 0 1.02 0 0 Z " fill="#61C7D1" transform="translate(161,131)"/>
<path d="M0 0 C0.61875 0.78375 1.2375 1.5675 1.875 2.375 C4.76194287 5.94122354 6.57862754 6.84852784 11.15234375 7.3359375 C21.10040537 7.43860067 30.27168243 6.04388528 39.9921875 3.97265625 C49.06310168 2.09579293 60.24839994 0.08279998 69.1875 3.0625 C71 5 71 5 71.3125 8.6875 C71.209375 9.780625 71.10625 10.87375 71 12 C70.20335938 12.03738281 69.40671875 12.07476562 68.5859375 12.11328125 C60.34107128 12.51911289 60.34107128 12.51911289 53 16 C51.59533047 18.05093145 51.59533047 18.05093145 51 20 C50.731875 19.195625 50.46375 18.39125 50.1875 17.5625 C49.5996875 16.2940625 49.5996875 16.2940625 49 15 C48.01 14.67 47.02 14.34 46 14 C46.495 14.99 46.495 14.99 47 16 C48.10588009 29.16178602 45.64394742 39.53520839 37.5390625 50.0078125 C30.94313156 57.78086343 23.95606464 65.23115793 16.5625 72.25 C7.0507877 81.65987384 1.56532252 93.71492074 1 107 C-1.86724686 106.42655063 -2.8614515 106.1385485 -5 104 C-5 89.19814125 6.01703781 76.70711545 14 65 C16.71858747 61.00826482 19.4291967 57.01148849 22.12658691 53.00540161 C23.27539645 51.30492109 24.43383223 49.61130874 25.59277344 47.91772461 C35.84588135 33.61157198 35.84588135 33.61157198 39 17 C37.18121968 14.75635957 37.18121968 14.75635957 34.56640625 14.76953125 C29.63844353 14.84002226 24.7775035 14.97554614 19.875 15.5 C14.72349024 16.02952376 9.61119428 16.11275215 4.4375 16.125 C3.23939697 16.13176758 3.23939697 16.13176758 2.01708984 16.13867188 C-3.752428 16.123786 -3.752428 16.123786 -6 15 C-6.05437607 13.41705218 -6.09296271 11.83355744 -6.125 10.25 C-6.14820312 9.36828125 -6.17140625 8.4865625 -6.1953125 7.578125 C-5.98870725 4.85093574 -5.47305841 3.28684592 -4 1 C-2 0 -2 0 0 0 Z " fill="#ED383D" transform="translate(35,34)"/>
<path d="M0 0 C4.18565733 3.77216952 6.54547598 7.4299093 8.9375 12.5 C9.27668457 13.19617432 9.61586914 13.89234863 9.96533203 14.60961914 C12.6856967 20.22620656 15.26365705 25.90748741 17.7734375 31.62109375 C18.77179855 34.13174634 18.77179855 34.13174634 21 35 C23.61955022 35.29616348 26.22489143 35.54363597 28.8515625 35.75390625 C29.62559418 35.81907944 30.39962585 35.88425262 31.19711304 35.95140076 C33.67277144 36.15895697 36.14885892 36.36079188 38.625 36.5625 C40.30211469 36.7020978 41.9791985 36.84206708 43.65625 36.98242188 C47.77048726 37.32592836 51.88511839 37.66430398 56 38 C56 38.33 56 38.66 56 39 C35.32017604 39.41427632 15.64250203 39.37840178 -4 32 C-5.85574089 30.14425911 -5.17392961 27.17088154 -5.1875 24.6875 C-5.11590342 15.91691867 -4.93726614 7.48029637 0 0 Z " fill="#FBF7F7" transform="translate(169,166)"/>
<path d="M0 0 C4.90689791 0.42787421 7.75603982 2.92088815 11.3125 6.0625 C11.86228516 6.53494141 12.41207031 7.00738281 12.97851562 7.49414062 C14.3262696 8.654381 15.66415117 9.82607224 17 11 C16.79721436 11.58700684 16.59442871 12.17401367 16.38549805 12.77880859 C14.23356787 19.39584817 13.31621052 25.70244618 12.8125 32.625 C12.73064453 33.62917969 12.64878906 34.63335937 12.56445312 35.66796875 C12.3666526 38.11138701 12.17866669 40.55512122 12 43 C10.02270508 42.18261719 10.02270508 42.18261719 8 41 C7.63671875 38.078125 7.63671875 38.078125 7.6875 34.25 C7.52476355 23.95661821 4.05426827 14.71318496 0.62670898 5.10620117 C0 3 0 3 0 0 Z " fill="#5CB8C1" transform="translate(152,154)"/>
<path d="M0 0 C0.66 0 1.32 0 2 0 C5.10686909 6.00550299 5.52717655 11.23597987 5.6875 17.9375 C5.72166016 18.90751953 5.75582031 19.87753906 5.79101562 20.87695312 C5.87288574 23.25118637 5.94223078 25.62507877 6 28 C6.99 27.67 7.98 27.34 9 27 C7.25 31.875 7.25 31.875 5 33 C4.67 33.99 4.34 34.98 4 36 C3.34 36 2.68 36 2 36 C0.58353961 33.16707921 0.90619861 30.80055058 0.9375 27.63671875 C0.94523437 26.35732422 0.95296875 25.07792969 0.9609375 23.75976562 C0.97956535 21.72565353 0.99995894 19.6915642 1.02050781 17.6574707 C1.03867549 15.69225418 1.05065511 13.72698355 1.0625 11.76171875 C1.07410156 10.58569092 1.08570312 9.40966309 1.09765625 8.19799805 C1.01000098 5.327507 0.6652979 2.78593495 0 0 Z " fill="#EE4448" transform="translate(88,57)"/>
<path d="M0 0 C0.99 0 1.98 0 3 0 C3.36351562 0.81404297 3.36351562 0.81404297 3.734375 1.64453125 C4.06953125 2.35996094 4.4046875 3.07539063 4.75 3.8125 C5.07484375 4.52019531 5.3996875 5.22789062 5.734375 5.95703125 C7.90876862 9.46693207 10.01243579 10.76078432 14.015625 11.73046875 C15.61664063 11.95669922 15.61664063 11.95669922 17.25 12.1875 C18.32765625 12.34605469 19.4053125 12.50460938 20.515625 12.66796875 C21.33546875 12.77753906 22.1553125 12.88710937 23 13 C19.26918581 15.48720946 16.32071141 15.63539874 12 15 C6.65372013 13.10293295 3.66872869 10.02952715 1 5 C0.25 2.125 0.25 2.125 0 0 Z " fill="#91D9DF" transform="translate(182,176)"/>
<path d="M0 0 C0.66 0.33 1.32 0.66 2 1 C2.59355614 3.64860427 2.74209269 6.29197322 3 9 C2.01 9.495 2.01 9.495 1 10 C1 11.65 1 13.3 1 15 C0.0409375 15.3403125 0.0409375 15.3403125 -0.9375 15.6875 C-3.27193661 16.85250896 -3.27193661 16.85250896 -3.75 19.625 C-3.8325 20.40875 -3.915 21.1925 -4 22 C-4.33 22 -4.66 22 -5 22 C-5.18585272 17.91124013 -4.80145306 15.60290612 -3 12 C-3.29805007 9.80252869 -3.29805007 9.80252869 -4 8 C-3.01 7.34 -2.02 6.68 -1 6 C-0.83328148 3.4582293 -0.83328148 3.4582293 -1 1 C-0.67 0.67 -0.34 0.34 0 0 Z " fill="#EE4448" transform="translate(95,111)"/>
<path d="M0 0 C0.99 0.495 0.99 0.495 2 1 C2.88671875 4.01953125 2.88671875 4.01953125 3.6875 7.8125 C3.95949219 9.05644531 4.23148438 10.30039063 4.51171875 11.58203125 C4.94068161 14.58477125 5.04478192 16.2162522 4 19 C-0.00248815 14.99751185 0.0598747 7.76630358 -0.125 2.3125 C-0.08375 1.549375 -0.0425 0.78625 0 0 Z " fill="#79D0D8" transform="translate(179,158)"/>
<path d="M0 0 C0.66 0 1.32 0 2 0 C4.8352113 5.5522888 5.37952295 9.80112515 5 16 C4.01 16 3.02 16 2 16 C1.34 10.72 0.68 5.44 0 0 Z " fill="#F16367" transform="translate(88,57)"/>
<path d="M0 0 C1.74965358 -0.05429959 3.49979787 -0.09292823 5.25 -0.125 C6.22453125 -0.14820313 7.1990625 -0.17140625 8.203125 -0.1953125 C11.0196498 0.00137219 12.60949036 0.55431084 15 2 C10.47258828 3.50913724 5.93573202 3.77429281 1.5 2 C1.005 1.67 0.51 1.34 0 1 C0 0.67 0 0.34 0 0 Z " fill="#B1E4E9" transform="translate(190,188)"/>
<path d="M0 0 C-0.66 1.32 -1.32 2.64 -2 4 C-2.66 4 -3.32 4 -4 4 C-4.33 5.65 -4.66 7.3 -5 9 C-5.33 9 -5.66 9 -6 9 C-6.25 6.1875 -6.25 6.1875 -6 3 C-3.95959224 0.95959224 -2.91674756 0 0 0 Z " fill="#F05054" transform="translate(96,124)"/>
</svg>
